<?xml version="1.0" encoding="UTF-8"?><svg xmlns="http://www.w3.org/2000/svg" height="479.71pt" version="1.1" viewBox="0 0 275.25 479.71" width="275.25pt">
 <defs>
  <clipPath id="clip1">
   <path d="m215 325h60.25v154.71h-60.25z"/>
  </clipPath>
  <clipPath id="clip2">
   <path d="m13 160h262.25v246h-262.25z"/>
  </clipPath>
  <clipPath id="clip3">
   <path d="m69 380h183v99.71h-183z"/>
  </clipPath>
 </defs>
 <g id="surface1">
  <g clip-path="url(#clip1)" id="change1_3">
   <path d="m259.96 330.84s-3.65 35.28 0 43.75 15.29 105.12 15.29 105.12h-43.63l-16.4-154.05 44.74 5.18" fill="#f7b5a2"/>
  </g>
  <g id="change1_1"><path d="m190.3 187.44c-11.89-5.49-10.06-29.51-10.06-29.51s8.56-21.75 16.45-22.45c7.89-0.71 12.8-26.37 15.67-35.777 2.87-9.398 0.52-18.801 0-20.105-0.52-1.305-1.83-6.789-1.31-12.274 0.52-5.48-2.09-12.008-2.09-12.008l-8.61-26.375-15.67-3.39-27.04 5.219-39.28 39.429-9.4 7.977-3.4 37.974 15.67 35.78s-1.83 8.35-7.83 10.96c0 0 37.08 20.37 48.3 27.94 11.23 7.57 28.6-3.39 28.6-3.39" fill="#f7b5a2"/></g>
  <g id="change2_1"><path d="m204.96 35.121c5.4 13.754 4.27 21.762 4 20.195-0.26-1.57-7.87-21.98-10.54-22.933-2.67-0.957-11.13-6.313-24.4-2.16-13.29 4.148-36.08 43.89-39.73 45.632-3.66 1.743-7.84 0-7.84 0s-7.83-4.875-12.27 1.391c-8.62 10.445 8.62 25.324 8.62 25.324s3.91 6.79 11.75 1.31c2.09 25.33 17.49 38.65 17.49 38.65s-5.22 2.87-8.35-1.83c0.26 4.7 2.87 7.31 2.87 7.31s-8.88 2.35-11.75 0.52c-1.04 2.35-13.32 5.75-13.32 5.75s-3.39-1.05-6-3.66c-3.66 0.78-6.27-1.65-6.27-1.65s-4.18-3.83-5.92-13.93c-9.398-3.83-3.13-26.11 0-37.946 3.14-11.836 4.53-21.239 4.53-21.239l4.87-17.058s10.07-48.652 44.94-56.488c29.91-2.6098 40.88 17.757 40.88 17.757l6.44 15.055" fill="#1b3a5d"/></g>
  <g id="change2_2"><path d="m182.07 136.78l-1.83 21.15s10.71 2.09 14.1 0v-5.48s1.05 3.13 6.01 3.39c-2.87-2.87-3.66-20.36-3.66-20.36l-14.62 1.3" fill="#1b3a5d"/></g>
  <g clip-path="url(#clip2)" id="change3_1">
   <path d="m94.945 395.8s0.348-5.57-6.265-5.57c-6.614 0-28.899-24.37-27.504-34.11 1.394-9.75-6.266-36.56-6.266-36.56h-3.48s0.347-12.88-14.973-20.54c-15.316-7.66-23.324 0-23.324 0v-6.96c0-4.18 7.308-13.23 9.051-20.89 1.742-7.66 5.918-16.17 5.918-16.17s6.964-15.52 9.402-33.62c2.434-18.1 14.273-27.88 14.273-27.88s1.391-11.46 11.836-14.24c16.016-12.88 26.809-9.06 26.809-9.06s9.051-7.65 13.578-9.05c4.52-1.39 21.23 0 21.23 0l56.29 13.1s10.21 1.18 14.04 4.66 9.4 3.13 9.4 3.13 23.33 6.2 27.5 11.46c4.18 5.25 12.54 24.75 14.27 37.28 1.75 12.54 22.98 80.08 26.81 82.17 3.84 2.09 0 9.75 0 9.75s-17.4 10.79-32.02 18.45c1.04 11.83-1.4 27.15-1.4 27.15s12.88 30.64-5.57 34.12-36.21 3.48-36.21 3.48l-41.73-3.13-61.665-6.97" fill="#f794b8"/>
  </g>
  <g clip-path="url(#clip3)" id="change2_3">
   <path d="m235.25 399.64s1.39 12.18 2.78 13.57c1.4 1.4 3.13 2.44 2.79 4.88-0.35 2.43 11.49 55.7 10.79 61.62h-182.43s6.269-47.35 8.355-53.96c1.395-0.35 1.395-0.35 1.395-0.35s4.175-26.46 13.925-40.74c9.745-14.27 142.4 14.98 142.4 14.98" fill="#1b3a5d"/>
  </g>
  <g id="change1_2"><path d="m122.8 450.12c32.02 3.83 37.61-17.06 37.61-17.06v-17.4s2.07-0.35 9.39 3.82c7.31 4.18 16.36 1.75 17.4 0 1.05-1.74 0.35-5.57-4.18-5.91-4.52-0.35-32.72-18.8-32.72-18.8s-5.92-4.18-15.32-7.32c-7.66-5.91-22.28-12.88-22.28-12.88s-33.77-11.84-47.696-20.89-21.586-13.92-21.586-13.92c0.695-2.44 10.098-24.72 10.098-24.72s-13.578-23.33-16.711-24.72c-3.137-1.39-23.672 8.7-23.672 8.7s-11.145 30.64-12.883 50.14c-1.7422 19.5 6.2656 21.23 6.2656 21.23s34.152 22.33 78.699 30.32c20.175 3.45 26.095 21.21 26.095 21.21l11.49 28.2" fill="#f7b5a2"/></g>
  <g id="change4_1"><path d="m190.52 19.109l-0.36-1.566-10.44 0.348 0.17 1.738c-12.53 0.523-22.25 4.699-22.25 4.699s-6.64-13.574 3.11-19.144c9.75-5.5746 31.33 5.918 35.51 13.578l-5.74 0.347m21.75 2.086s-5.91-1.043-12.18-1.738c-2.79-9.402-18.11-14.625-18.11-14.625s-14.96-6.9609-32.03-4.1758c-17.06 2.7852-36.55 21.582-37.25 22.977-0.69 1.394-13.923 15.32-12.53 27.156 1.39 11.836 7.66 25.066 7.66 25.066s16.01-22.976 25.76-27.503c9.75-4.528 30.29-16.711 30.29-16.711s24.37-5.571 41.08 3.48c-0.01-3.566-2.08-6.219-2.08-6.219s8.7-0.047 11.48 1.696c2.79 1.738-2.09-9.403-2.09-9.403" fill="#f1f2f3"/></g>
  <g id="change5_1"><path d="m122.05 450.14c-0.6 0-1.55-0.03-2.69-0.13-1.02-0.08-2.21-0.22-3.47-0.43-1.26-0.2-2.6-0.46-3.92-0.78-0.66-0.16-1.33-0.32-1.97-0.51-0.65-0.17-1.27-0.4-1.89-0.58-1.22-0.4-2.34-0.85-3.27-1.28-0.95-0.44-1.7-0.89-2.2-1.25-0.26-0.17-0.43-0.36-0.55-0.47-0.12-0.1-0.18-0.17-0.18-0.17s0.34 0.12 0.9 0.28c0.28 0.07 0.63 0.15 1.03 0.24 0.41 0.08 0.86 0.17 1.35 0.27 1 0.19 2.15 0.42 3.38 0.68 1.24 0.25 2.55 0.54 3.86 0.85 1.32 0.32 2.62 0.66 3.84 1 1.22 0.35 2.35 0.7 3.32 1.03 1.94 0.65 3.21 1.23 3.21 1.23s-0.27 0.02-0.75 0.02" fill="#1e374f"/></g>
  <g id="change5_2"><path d="m88.68 475.53s-0.004-0.24-0.016-0.7c0.016-0.45 0.039-1.13 0.16-1.97 0.219-1.7 0.672-4.1 1.594-6.9 0.484-1.41 1.008-2.9 1.973-4.44 0.507-0.84 1.105-1.35 1.421-2.03 0.376-0.68 0.672-1.5 0.95-2.31 0.543-1.67 0.906-3.48 1.269-5.32 0.348-1.84 0.625-3.74 0.824-5.63 0.114-0.96 0.2-1.87 0.235-2.8 0.015-0.95 0.07-1.98 0.152-2.93 0.164-1.93 0.453-3.81 0.789-5.62 0.344-1.82 0.793-3.56 1.399-5.18 0.34-0.81 0.64-1.57 1.17-2.33 0.13-0.18 0.26-0.4 0.4-0.53l0.4-0.41 0.4-0.39c0.12-0.09 0.22-0.23 0.32-0.36 0.79-1.04 1.24-2.3 1.56-3.4 0.31-1.12 0.52-2.12 0.66-2.95 0.28-1.67 0.36-2.64 0.36-2.64s0.09 0.97 0.03 2.68c-0.03 0.85-0.1 1.89-0.31 3.08-0.22 1.17-0.5 2.54-1.37 3.89-0.11 0.18-0.22 0.35-0.37 0.5l-0.21 0.24-0.11 0.12-0.02 0.03-0.02 0.02 0.04-0.04-0.05 0.06-0.37 0.44c-0.12 0.15-0.16 0.28-0.25 0.42-0.32 0.55-0.61 1.32-0.85 2.06-0.48 1.53-0.79 3.22-1.078 4.99-0.278 1.76-0.45 3.6-0.598 5.47-0.066 0.95-0.105 1.84-0.109 2.82-0.024 0.99-0.11 2.01-0.211 2.98-0.481 3.9-1.153 7.75-2.414 11.3-0.348 0.87-0.668 1.75-1.196 2.57-0.496 0.88-1.269 1.48-1.621 2.06-0.879 1.24-1.554 2.69-2.121 3.98-1.113 2.64-1.844 4.94-2.277 6.57-0.453 1.63-0.535 2.6-0.535 2.6" fill="#1e374f"/></g>
  <g id="change5_3"><path d="m194.52 475.53s0.14-1.22 0.42-3.35c0.3-2.12 0.67-5.16 1.21-8.8 0.26-1.81 0.55-3.78 0.86-5.86s0.64-4.28 0.98-6.55c0.34-2.26 0.69-4.61 1.05-6.99 0.3-2.37 0.72-4.73 0.92-7.18l0.18-1.79 0.03-1.83c0.01-1.21 0.03-2.42 0.05-3.62 0.05-2.4 0.1-4.77 0.15-7.05 0.06-2.29 0.06-4.51 0.09-6.62 0.04-2.1 0.07-4.09 0.1-5.93 0.01-0.13-0.02-0.17 0.05-0.48 0.07-0.23 0.19-0.4 0.29-0.51 0.23-0.25 0.45-0.37 0.66-0.51 0.43-0.24 0.84-0.41 1.25-0.55 0.81-0.3 1.59-0.51 2.32-0.69 1.47-0.36 2.75-0.61 3.81-0.81 2.11-0.37 3.33-0.51 3.33-0.51s-1.19 0.31-3.25 0.89c-1.03 0.29-2.28 0.65-3.67 1.14-0.7 0.24-1.44 0.52-2.17 0.86-0.37 0.17-0.74 0.35-1.06 0.57-0.16 0.11-0.32 0.23-0.39 0.33l-0.03 0.06c0 0.04 0 0.14 0.01 0.21 0.07 1.83 0.15 3.82 0.24 5.93 0.07 2.1 0.19 4.32 0.17 6.62 0.01 2.31 0.02 4.69 0.02 7.11 0 1.2 0 2.42-0.01 3.65l-0.01 1.84c-0.05 0.69-0.11 1.24-0.17 1.87-0.21 2.42-0.67 4.89-1 7.29-0.38 2.39-0.83 4.73-1.22 7-0.84 4.52-1.68 8.72-2.45 12.31-0.76 3.6-1.48 6.58-1.96 8.67-0.49 2.09-0.8 3.28-0.8 3.28" fill="#1e374f"/></g>
  <g id="change5_4"><path d="m239.56 440.9c-0.13 0-0.28-0.01-0.43-0.04-0.22-0.03-0.46-0.07-0.7-0.16-0.49-0.14-1.03-0.38-1.54-0.74-0.53-0.33-1.05-0.77-1.54-1.27-0.5-0.5-0.99-1.06-1.44-1.67-0.9-1.22-1.7-2.61-2.38-4.04-0.68-1.44-1.24-2.91-1.69-4.32-0.45-1.4-0.79-2.74-1.02-3.89-0.48-2.31-0.53-3.9-0.53-3.9s0.7 1.42 1.62 3.55c0.47 1.06 1 2.3 1.58 3.62s1.2 2.71 1.85 4.08c0.32 0.69 0.66 1.36 1 2.02s0.68 1.3 1.04 1.9c0.37 0.59 0.72 1.17 1.1 1.67s0.74 0.98 1.13 1.36c0.19 0.2 0.38 0.36 0.57 0.52 0.19 0.18 0.38 0.29 0.57 0.42 0.18 0.13 0.37 0.2 0.54 0.29 0.17 0.1 0.34 0.16 0.5 0.2 0.31 0.11 0.57 0.16 0.75 0.18s0.28 0.03 0.28 0.03-0.09 0.03-0.27 0.08c-0.17 0.03-0.41 0.11-0.73 0.11h-0.09-0.17" fill="#1e374f"/></g>
  <g id="change6_1"><path d="m197.05 391.93m-10.47-1.92l-2.55-0.45c-0.69-0.73-1.41-1.45-2.17-2.14-0.88-0.8-1.81-1.55-2.81-2.23-0.51-0.34-1.01-0.65-1.53-0.94l-0.83-0.46-0.82-0.36c-2.22-1.01-4.75-1.69-7.22-2.39l-3.75-0.99c-1.25-0.3-2.5-0.59-3.74-0.89-2.5-0.55-4.95-1.13-7.33-1.63-4.78-1.01-9.23-1.94-13.05-2.74-7.66-1.59-12.76-2.66-12.76-2.66s1.3 0.11 3.57 0.36c2.27 0.28 5.51 0.62 9.38 1.17 3.88 0.55 8.39 1.25 13.2 2.14 2.41 0.45 4.9 0.93 7.41 1.48 1.26 0.29 2.52 0.58 3.79 0.87l3.81 0.96c2.53 0.75 5.05 1.44 7.5 2.57l0.93 0.42 0.84 0.47c0.58 0.35 1.14 0.72 1.67 1.09 1.06 0.77 2.04 1.61 2.94 2.47 1.31 1.25 2.47 2.57 3.52 3.88" fill="#bd778e"/></g>
  <g id="change5_5"><path d="m194.51 399.7h-0.19c-0.51-0.03-1.01-0.2-1.43-0.45-0.85-0.5-1.55-1.2-2.24-1.92-1.36-1.47-2.65-3.15-4.06-4.87-0.81-0.96-1.66-1.94-2.56-2.9l2.55 0.45c1.87 2.33 3.41 4.65 4.94 6.56 0.98 1.18 2.05 2.31 3.16 2.31 0.23 0 0.48-0.06 0.71-0.17 0.59-0.24 1-0.85 1.22-1.45 0.25-0.6 0.34-1.22 0.42-1.77 0.12-1.12 0.11-2.02 0.09-2.62-0.03-0.6-0.07-0.92-0.07-0.94 0 0.02 0.08 0.33 0.17 0.93s0.23 1.5 0.2 2.66c-0.03 0.57-0.07 1.23-0.28 1.92-0.21 0.68-0.57 1.49-1.44 1.95-0.23 0.1-0.49 0.23-0.67 0.23l-0.31 0.06c-0.08 0.01-0.04 0.01-0.21 0.02" fill="#1e374f"/></g>
  <g id="change6_2"><path d="m59.09 313.99s0.996-2.35 2.715-5.73c0.851-1.7 1.883-3.65 3.027-5.73 0.578-1.03 1.152-2.12 1.781-3.19 0.621-1.07 1.254-2.17 1.883-3.27 0.652-1.08 1.305-2.16 1.945-3.22 0.633-1.07 1.305-2.1 1.93-3.1 1.266-2.01 2.481-3.86 3.555-5.43 2.129-3.14 3.703-5.14 3.703-5.14s-0.992 2.34-2.715 5.73c-0.852 1.7-1.883 3.65-3.023 5.73-0.582 1.03-1.153 2.12-1.786 3.19-0.621 1.08-1.253 2.17-1.886 3.26-0.653 1.09-1.305 2.17-1.946 3.23-0.632 1.07-1.304 2.09-1.929 3.1-1.266 2.01-2.481 3.86-3.555 5.42-2.129 3.14-3.699 5.15-3.699 5.15" fill="#bd778e"/></g>
  <g id="change6_3"><path d="m101.56 288.58l-0.87-0.04c-0.29-0.02-0.59 0.01-0.87-0.07l-0.863-0.17c-0.297-0.03-0.559-0.18-0.836-0.27-0.273-0.12-0.562-0.19-0.805-0.37-0.254-0.15-0.515-0.3-0.757-0.46l-0.672-0.59c-0.223-0.21-0.387-0.46-0.586-0.68-0.203-0.23-0.332-0.5-0.492-0.75-0.168-0.25-0.293-0.52-0.411-0.79-0.128-0.27-0.242-0.55-0.324-0.84-0.097-0.28-0.191-0.56-0.25-0.85-0.148-0.58-0.246-1.17-0.297-1.76-0.058-0.6-0.082-1.18-0.047-1.8l0.008-0.11 0.098-0.1c2.695-2.6 5.367-5.23 8.084-7.81l7.72-7.38-0.07-0.06c-0.1-0.02-0.16-0.08-0.27-0.09-0.11 0-0.22 0-0.33-0.02-0.27 0.06-0.53 0.08-0.81 0.18l-0.84 0.34c-0.55 0.34-1.12 0.59-1.65 1-0.53 0.38-1.08 0.73-1.58 1.17-0.5 0.42-1.03 0.83-1.52 1.27l-1.47 1.36c-0.995 0.88-1.912 1.87-2.873 2.8-0.481 0.47-0.922 0.98-1.387 1.46l-1.375 1.47c-0.922 0.98-1.785 2.02-2.684 3.02-1.801 2-3.476 4.12-5.222 6.17l-1.903 2.24 0.266-2.96 0.566-6.31 0.164-6.34-0.168-6.35c-0.101-2.12-0.3-4.23-0.445-6.35-0.184-2.11-0.477-4.21-0.711-6.32-0.262-2.11-0.633-4.2-0.945-6.3-0.34-2.1-0.77-4.18-1.153-6.28-0.41-2.08-0.886-4.16-1.328-6.23l-1.453-6.22c-0.523-2.07-1.011-4.14-1.562-6.2-1.067-4.13-2.215-8.24-3.317-12.37-0.539-2.05-1.109-4.17-1.465-6.28l-0.25-1.6c-0.093-0.5-0.136-1.03-0.273-1.52-0.164-0.49-0.273-1-0.477-1.48-0.226-0.47-0.394-0.96-0.667-1.41-1.012-1.83-2.469-3.4-4.126-4.71-1.656-1.32-3.511-2.41-5.492-3.21 2.02 0.69 3.957 1.67 5.703 2.93 1.739 1.26 3.305 2.82 4.446 4.68 0.304 0.46 0.508 0.97 0.765 1.46 0.235 0.49 0.379 1.02 0.571 1.54 0.164 0.52 0.238 1.07 0.359 1.61l0.313 1.56c0.453 2.07 1.054 4.07 1.644 6.14 1.203 4.09 2.457 8.17 3.637 12.28s2.308 8.24 3.308 12.41c0.461 2.09 0.957 4.17 1.391 6.27 0.402 2.11 0.855 4.21 1.215 6.32 0.332 2.12 0.726 4.23 1.008 6.35 0.258 2.14 0.57 4.26 0.777 6.4 0.164 2.14 0.383 4.28 0.504 6.43 0.066 2.15 0.148 4.3 0.16 6.45l-0.223 6.46-0.339 3.45c1.109-1.31 2.218-2.63 3.382-3.9 0.911-1 1.789-2.04 2.735-3.02l1.406-1.48c0.473-0.49 0.926-0.99 1.418-1.47 0.988-0.94 1.926-1.93 2.957-2.84l1.543-1.35c0.53-0.45 1.09-0.86 1.63-1.29 0.52-0.44 1.13-0.8 1.71-1.2 0.55-0.41 1.23-0.7 1.85-1.05 0.34-0.14 0.7-0.26 1.04-0.39 0.37-0.11 0.79-0.16 1.18-0.21 0.23 0.01 0.45 0.03 0.68 0.06 0.22 0.03 0.46 0.16 0.68 0.26 0.44 0.3 0.79 0.66 0.92 1.26l0.08 0.37-0.29 0.26-8.32 7.55c-2.734 2.5-5.515 4.95-8.277 7.43-0.043 0.5-0.043 1.04-0.016 1.55 0.028 0.57 0.098 1.14 0.215 1.7 0.043 0.28 0.121 0.55 0.199 0.82 0.071 0.28 0.168 0.54 0.278 0.8 0.101 0.27 0.207 0.53 0.355 0.77 0.141 0.25 0.254 0.51 0.441 0.73 0.176 0.22 0.321 0.46 0.524 0.66l0.609 0.59c0.227 0.17 0.469 0.33 0.703 0.49 0.223 0.18 0.5 0.27 0.758 0.39 0.262 0.11 0.512 0.27 0.797 0.32l0.84 0.21c0.274 0.1 0.574 0.08 0.864 0.12l0.86 0.09" fill="#bd778e"/></g>
  <g id="change6_4"><path d="m95.992 356.81s3.266-4.28 8.158-10.72c2.44-3.21 5.28-6.97 8.31-11 1.5-2.02 3.06-4.11 4.63-6.24 1.56-2.14 3.18-4.29 4.71-6.49 1.57-2.18 3.15-4.36 4.63-6.54 0.75-1.09 1.5-2.17 2.24-3.23 0.72-1.08 1.43-2.14 2.13-3.19 1.41-2.08 2.71-4.13 3.94-6.08 1.26-1.94 2.34-3.83 3.37-5.56 1.05-1.72 1.91-3.35 2.67-4.8 0.38-0.72 0.74-1.4 1.08-2.02s0.56-1.24 0.81-1.77c0.95-2.15 1.52-3.38 1.52-3.38s-0.4 1.28-1.16 3.53c-0.21 0.55-0.38 1.19-0.67 1.84-0.28 0.66-0.58 1.37-0.91 2.12-0.33 0.76-0.67 1.57-1.04 2.42-0.36 0.85-0.84 1.69-1.29 2.6-0.92 1.81-1.9 3.79-3.1 5.78-1.15 2.02-2.36 4.15-3.74 6.28-0.67 1.07-1.36 2.16-2.06 3.26-0.71 1.09-1.45 2.18-2.2 3.29-1.47 2.21-3.03 4.41-4.6 6.61-1.56 2.21-3.2 4.35-4.78 6.48-1.59 2.14-3.24 4.16-4.78 6.16-3.16 3.96-6.17 7.6-8.82 10.66-2.63 3.07-4.92 5.54-6.505 7.29-1.597 1.74-2.543 2.7-2.543 2.7" fill="#bd778e"/></g>
  <g id="change6_5"><path d="m241.87 332.79c-0.48-3.42-0.89-6.85-1.29-10.28-0.42-3.43-0.82-6.87-1.18-10.3l-1.04-10.32c-0.18-1.71-0.34-3.43-0.44-5.18l-0.37-5.2-0.09-1.31-0.12-1.23c-0.1-0.85-0.14-1.73-0.28-2.56l-0.75-5.04c-0.56-3.41-1.15-6.8-1.75-10.2l-3.65-20.38-0.03-0.17 0.03-0.16 1.8-9.05 1.71-9.07 0.81-4.54c0.26-1.52 0.52-3.03 0.75-4.56 0.22-1.52 0.45-3.04 0.6-4.57 0.08-0.76 0.17-1.53 0.21-2.29 0.08-0.77 0.05-1.53 0.03-2.31 0.07 0.77 0.17 1.54 0.16 2.31 0.02 0.78 0 1.55-0.04 2.32-0.06 1.55-0.2 3.08-0.33 4.62-0.28 3.07-0.64 6.14-1.06 9.2-0.41 3.06-0.87 6.11-1.37 9.15-0.48 2.99-0.97 5.97-1.52 8.95 1.38 6.72 2.65 13.45 3.86 20.21 0.62 3.4 1.16 6.81 1.71 10.23l0.74 5.21c0.14 0.87 0.15 1.73 0.24 2.59l0.1 1.34 0.07 1.29c0.19 3.42 0.3 6.83 0.57 10.28l1.01 15.5 0.31 5.18 0.32 5.17 0.28 5.17" fill="#bd778e"/></g>
  <g id="change6_6"><path d="m234.55 249.24s0.17-0.22 0.41-0.53c0.11-0.18 0.22-0.41 0.37-0.64 0.13-0.25 0.26-0.55 0.43-0.85 0.14-0.32 0.29-0.67 0.47-1.02 0.16-0.37 0.33-0.76 0.52-1.15 0.36-0.8 0.76-1.64 1.17-2.49 0.42-0.84 0.85-1.68 1.28-2.45 0.43-0.79 0.85-1.5 1.25-2.11 0.76-1.22 1.42-1.99 1.42-1.99s-0.03 1.01-0.37 2.43c-0.16 0.71-0.39 1.53-0.69 2.38-0.3 0.86-0.67 1.75-1.09 2.62-0.22 0.44-0.45 0.86-0.68 1.28s-0.51 0.81-0.75 1.2c-0.52 0.76-1.07 1.44-1.6 1.97-0.28 0.27-0.54 0.5-0.78 0.68-0.26 0.19-0.5 0.33-0.68 0.44-0.45 0.17-0.68 0.23-0.68 0.23" fill="#bd778e"/></g>
  <g id="change5_6"><path d="m209.24 467.75s0.22-0.71 0.6-1.96c0.22-0.6 0.35-1.39 0.56-2.26 0.1-0.44 0.21-0.9 0.32-1.39 0.09-0.5 0.18-1.02 0.28-1.57 0.1-0.53 0.2-1.1 0.3-1.69 0.09-0.59 0.18-1.2 0.27-1.83 0.2-1.24 0.36-2.57 0.53-3.94 0.2-1.37 0.31-2.8 0.49-4.24s0.29-2.91 0.43-4.38c0.31-2.94 0.54-5.89 0.79-8.65 0.12-1.39 0.24-2.72 0.35-3.99s0.22-2.47 0.32-3.58c0.4-4.43 0.74-7.4 0.74-7.4s0.32 2.97 0.4 7.44c0.06 2.23 0.04 4.84-0.05 7.63-0.07 1.4-0.11 2.84-0.21 4.3-0.12 1.47-0.2 2.95-0.35 4.44-0.16 1.48-0.3 2.96-0.51 4.42-0.18 1.46-0.41 2.89-0.66 4.27-0.12 0.69-0.24 1.37-0.36 2.03-0.16 0.66-0.3 1.31-0.44 1.93-0.15 0.63-0.29 1.24-0.43 1.83-0.17 0.58-0.34 1.14-0.49 1.68-0.17 0.54-0.32 1.06-0.46 1.55-0.19 0.48-0.36 0.94-0.53 1.36-0.33 0.86-0.59 1.61-0.92 2.18-0.61 1.17-0.97 1.82-0.97 1.82" fill="#1e374f"/></g>
  <g id="change7_1"><path d="m193.21 27.395s-0.1-0.129-0.25-0.352c-0.07-0.109-0.16-0.242-0.24-0.391-0.09-0.148-0.16-0.308-0.27-0.492-0.24-0.355-0.43-0.773-0.64-1.226-0.22-0.45-0.4-0.946-0.59-1.446-0.35-1-0.6-2.054-0.68-2.906-0.09-0.836-0.02-1.473-0.02-1.473s0.53 0.352 1.07 1.024c0.58 0.656 1.14 1.633 1.52 2.691 0.19 0.528 0.31 1.09 0.41 1.614 0.05 0.257 0.05 0.531 0.06 0.781s0.01 0.488-0.01 0.707c0.01 0.215-0.05 0.433-0.09 0.613-0.03 0.184-0.09 0.34-0.12 0.465-0.09 0.254-0.15 0.391-0.15 0.391" fill="#b6b6b6"/></g>
  <g id="change7_2"><path d="m182.38 27.395s-0.41-0.286-0.77-0.774c-0.39-0.48-0.71-1.168-0.88-1.891-0.17-0.722-0.18-1.484-0.05-2.089 0.1-0.594 0.34-1.032 0.34-1.032s0.41 0.286 0.77 0.774c0.39 0.48 0.71 1.168 0.89 1.89 0.16 0.723 0.18 1.485 0.05 2.086-0.11 0.598-0.35 1.036-0.35 1.036" fill="#b6b6b6"/></g>
 </g>
</svg>