<?xml version="1.0" standalone="no"?>
<!DOCTYPE svg PUBLIC "-//W3C//DTD SVG 20010904//EN"
 "http://www.w3.org/TR/2001/REC-SVG-20010904/DTD/svg10.dtd">
<svg version="1.0" xmlns="http://www.w3.org/2000/svg"
 width="1200.000000pt" height="1200.000000pt" viewBox="0 0 1200.000000 1200.000000"
 preserveAspectRatio="xMidYMid meet">
<metadata>
Created by potrace 1.11, written by Peter Selinger 2001-2013
</metadata>
<g transform="translate(0.000000,1200.000000) scale(0.100000,-0.100000)"
fill="#000000" stroke="none">
<path d="M6389 11986 c-3 -3 -25 -7 -49 -9 -145 -14 -339 -96 -534 -224 -55
-37 -113 -76 -127 -88 -14 -11 -41 -31 -59 -45 -87 -65 -208 -179 -265 -250
-128 -161 -205 -285 -251 -405 -33 -89 -38 -114 -38 -200 1 -85 21 -197 58
-320 29 -97 101 -290 123 -330 6 -11 7 -35 1 -64 -5 -25 -11 -57 -13 -71 -8
-49 -34 -175 -39 -190 -3 -8 -7 -26 -10 -40 -2 -14 -11 -52 -19 -85 -9 -33
-18 -71 -21 -85 -2 -14 -21 -88 -41 -165 -20 -77 -38 -156 -41 -175 -3 -19 -7
-37 -9 -40 -2 -3 -6 -26 -10 -50 -3 -25 -9 -58 -12 -75 -8 -35 -8 -293 -1
-315 20 -63 74 -140 99 -140 8 0 18 -25 25 -67 6 -35 42 -140 57 -167 6 -12
12 -23 12 -26 0 -3 15 -26 33 -52 37 -54 78 -78 145 -84 33 -3 61 -14 96 -39
26 -19 54 -35 61 -35 17 0 5 -43 -26 -94 -51 -85 -39 -80 -197 -82 -78 -1
-142 -3 -142 -4 0 -1 -11 -3 -24 -6 -22 -4 -111 -48 -136 -67 -5 -4 -55 -40
-111 -81 l-100 -74 -83 3 c-88 3 -190 -13 -256 -40 -77 -31 -175 -80 -175 -87
0 -5 -6 -8 -13 -8 -8 0 -24 -8 -35 -17 -57 -47 -111 -82 -152 -97 -117 -45
-203 -149 -244 -293 -11 -39 -28 -66 -67 -105 -46 -47 -83 -95 -114 -148 -6
-10 -16 -24 -22 -31 -6 -8 -29 -50 -51 -94 -56 -112 -99 -253 -118 -385 -5
-37 -12 -77 -18 -110 -3 -14 -7 -42 -10 -64 -4 -21 -9 -42 -12 -47 -3 -5 -7
-22 -9 -37 -4 -28 -42 -175 -52 -202 -3 -8 -7 -19 -9 -25 -7 -27 -56 -172 -63
-190 -5 -11 -20 -49 -34 -85 -14 -36 -36 -90 -50 -121 -14 -30 -35 -82 -47
-115 -12 -32 -25 -68 -30 -79 -9 -21 -41 -129 -42 -142 -1 -25 -57 -160 -98
-238 -26 -49 -60 -115 -76 -145 -46 -88 -54 -119 -54 -225 0 -80 -5 -113 -24
-165 -29 -81 -85 -249 -91 -273 -2 -10 -15 -55 -29 -100 -26 -83 -68 -238 -92
-332 -1 -5 -4 -22 -7 -38 -3 -15 -8 -35 -11 -45 -5 -16 -13 -55 -21 -97 -2
-11 -10 -54 -18 -95 -25 -126 -29 -160 -32 -300 -4 -144 5 -212 36 -296 21
-57 68 -115 109 -136 14 -8 70 -40 125 -71 55 -32 111 -65 125 -73 66 -38 492
-244 505 -244 3 0 28 -11 57 -24 84 -38 446 -172 455 -168 1 0 40 -12 85 -28
46 -15 99 -31 118 -35 19 -4 41 -12 48 -17 6 -6 12 -8 12 -5 0 3 15 1 33 -4
17 -6 43 -12 57 -15 14 -3 52 -12 85 -21 33 -8 71 -17 85 -20 14 -2 54 -11 88
-19 35 -8 67 -12 71 -10 4 3 12 1 19 -3 10 -6 9 -17 -3 -52 -20 -55 -94 -323
-101 -364 -2 -16 -7 -38 -10 -47 -6 -20 -9 -38 -19 -98 -4 -28 -15 -52 -30
-65 -23 -20 -43 -106 -75 -315 -6 -41 -13 -86 -16 -100 -2 -14 -6 -43 -9 -65
-3 -22 -7 -51 -10 -65 -5 -25 -11 -58 -20 -122 -2 -18 -9 -66 -15 -106 -7 -41
-9 -76 -6 -79 3 -3 1 -14 -5 -24 -5 -10 -11 -42 -14 -71 -2 -29 -4 -53 -5 -53
-3 0 -8 -32 -15 -91 -7 -62 -13 -109 -21 -159 -2 -16 -6 -47 -9 -67 l-5 -38
2575 0 2575 0 -6 48 c-3 26 -8 58 -10 72 -2 14 -6 50 -9 80 -8 81 -12 110 -19
156 -6 40 -13 92 -21 164 -2 19 -6 51 -8 70 -3 19 -8 58 -11 85 -4 28 -9 66
-12 85 -2 19 -7 58 -10 85 -6 53 -12 90 -14 90 0 0 -3 20 -6 45 -2 25 -6 59
-8 75 -3 17 -8 59 -11 95 -4 35 -9 73 -11 85 -5 24 -11 62 -19 130 -4 28 -9
64 -11 80 -2 17 -6 52 -9 78 -3 27 -7 52 -9 55 -2 4 -7 38 -11 77 -4 38 -9 73
-11 76 -4 7 -15 97 -18 142 0 15 -3 27 -6 27 -3 0 -6 8 -6 18 -1 22 -12 121
-18 148 -2 12 -7 39 -10 60 -4 22 -11 66 -17 99 -6 33 -12 69 -14 80 -18 122
-41 232 -62 303 -20 67 -20 69 -27 103 -25 118 -21 515 9 864 10 118 13 146
16 149 2 1 49 29 104 61 55 32 123 73 152 91 28 19 56 34 62 34 10 0 31 41 49
96 6 18 9 54 8 82 -3 39 -9 55 -33 78 -31 30 -63 92 -108 209 -15 39 -31 79
-35 90 -5 11 -23 61 -40 110 -17 50 -40 113 -50 140 -28 74 -206 624 -215 665
-1 3 -9 30 -18 60 -9 30 -16 57 -16 60 1 3 -6 22 -14 43 -9 20 -14 37 -12 37
3 0 -1 17 -9 38 -24 63 -113 380 -121 427 -1 11 -8 40 -15 65 -7 25 -14 56
-15 70 -23 162 -112 465 -186 627 -10 24 -19 46 -19 49 0 12 -107 220 -133
257 -14 21 -27 41 -29 45 -5 12 -109 77 -161 101 -95 43 -306 121 -329 121 -5
0 -25 7 -45 15 -61 23 -144 44 -203 50 -71 8 -100 19 -187 76 -70 45 -153 79
-238 95 -22 5 -43 9 -47 10 -5 1 -19 2 -32 3 -29 1 -35 16 -52 141 -8 55 -13
233 -8 252 4 15 13 17 47 12 84 -11 259 -12 282 -2 18 8 23 18 23 52 -1 82 -2
80 35 53 35 -26 92 -49 101 -40 3 3 1 14 -4 24 -12 22 -36 127 -45 193 -3 27
-8 53 -10 56 -2 4 -6 53 -9 109 -3 56 -8 106 -11 111 -3 5 9 16 27 24 84 38
138 128 216 361 38 114 74 228 78 250 9 44 17 76 48 187 20 70 38 142 41 160
3 18 8 44 10 58 16 77 5 254 -21 345 -26 94 -37 180 -39 310 -2 118 -7 167
-24 229 -12 43 -23 117 -26 165 -2 47 -6 97 -9 111 -13 70 -19 94 -52 200 -20
63 -38 126 -41 140 -8 40 -11 55 -13 55 -1 0 -3 8 -5 18 -2 10 -10 29 -19 42
l-16 24 59 -3 c33 -2 64 -7 70 -11 6 -3 11 -1 11 5 0 6 4 9 9 5 5 -3 29 -9 53
-14 24 -5 58 -14 76 -20 l33 -10 -6 37 c-10 65 -64 202 -80 203 -5 0 -19 2
-30 5 -21 4 -43 7 -130 19 -27 4 -59 9 -70 10 -11 2 -30 4 -41 4 -15 1 -26 12
-35 34 -23 56 -125 177 -150 177 -5 0 -9 5 -9 10 0 6 -7 10 -15 10 -8 0 -15 5
-15 10 0 6 -7 10 -15 10 -8 0 -15 5 -15 10 0 6 -6 10 -14 10 -8 0 -16 3 -18 8
-3 7 -132 72 -143 72 -3 0 -24 9 -48 19 -39 19 -147 55 -192 66 -69 16 -162
36 -193 41 -49 7 -327 16 -333 10z m-3419 -7431 c-25 -13 -49 -24 -55 -24 -5
0 10 11 35 24 25 13 50 24 55 24 6 0 -10 -11 -35 -24z m956 -554 c5 -1 16 -25
22 -53 12 -52 26 -108 39 -158 3 -14 6 -33 7 -42 0 -10 3 -18 6 -18 3 0 6 -8
7 -17 1 -10 13 -69 27 -131 14 -62 25 -116 25 -120 -1 -4 0 -9 1 -12 5 -12 18
-105 26 -183 l5 -57 -131 85 c-72 47 -135 85 -140 85 -6 0 -10 4 -10 9 0 5
-12 15 -27 22 -16 8 -54 32 -85 53 -56 37 -57 39 -44 65 7 14 30 69 50 121 21
52 44 109 51 125 8 17 30 71 50 120 40 97 52 113 87 109 13 -1 28 -3 34 -3z"/>
</g>
</svg>
